<?xml version="1.0" encoding="UTF-8"?>
<!DOCTYPE svg PUBLIC "-//W3C//DTD SVG 1.1//EN" "http://www.w3.org/Graphics/SVG/1.1/DTD/svg11.dtd">
<svg xmlns="http://www.w3.org/2000/svg" version="1.1" width="500px" height="300px" style="shape-rendering:geometricPrecision; text-rendering:geometricPrecision; image-rendering:optimizeQuality; fill-rule:evenodd; clip-rule:evenodd" xmlns:xlink="http://www.w3.org/1999/xlink">
<g><path style="opacity:1" fill="#fefffe" d="M -0.5,-0.5 C 166.167,-0.5 332.833,-0.5 499.5,-0.5C 499.5,32.8333 499.5,66.1667 499.5,99.5C 332.833,99.5 166.167,99.5 -0.5,99.5C -0.5,66.1667 -0.5,32.8333 -0.5,-0.5 Z"/></g>
<g><path style="opacity:1" fill="#cb0000" d="M -0.5,99.5 C 166.167,99.5 332.833,99.5 499.5,99.5C 499.5,132.833 499.5,166.167 499.5,199.5C 332.833,199.5 166.167,199.5 -0.5,199.5C -0.5,166.167 -0.5,132.833 -0.5,99.5 Z"/></g>
<g><path style="opacity:1" fill="#fefffe" d="M -0.5,199.5 C 166.167,199.5 332.833,199.5 499.5,199.5C 499.5,232.833 499.5,266.167 499.5,299.5C 332.833,299.5 166.167,299.5 -0.5,299.5C -0.5,266.167 -0.5,232.833 -0.5,199.5 Z"/></g>
</svg>
