<?xml version="1.0" encoding="UTF-8"?>
<!DOCTYPE svg PUBLIC "-//W3C//DTD SVG 1.1//EN" "http://www.w3.org/Graphics/SVG/1.1/DTD/svg11.dtd">
<svg xmlns="http://www.w3.org/2000/svg" version="1.1" width="500px" height="300px" style="shape-rendering:geometricPrecision; text-rendering:geometricPrecision; image-rendering:optimizeQuality; fill-rule:evenodd; clip-rule:evenodd" xmlns:xlink="http://www.w3.org/1999/xlink">
<g><path style="opacity:1" fill="#fdfcfd" d="M 0.5,-0.5 C 19.8333,-0.5 39.1667,-0.5 58.5,-0.5C 104.547,27.5249 150.88,55.1916 197.5,82.5C 197.783,83.2891 198.283,83.9558 199,84.5C 199.5,56.1686 199.667,27.8353 199.5,-0.5C 205.833,-0.5 212.167,-0.5 218.5,-0.5C 218.5,39.1667 218.5,78.8333 218.5,118.5C 145.5,118.5 72.5,118.5 -0.5,118.5C -0.5,112.167 -0.5,105.833 -0.5,99.5C 35.1682,99.6667 70.8349,99.5 106.5,99C 70.778,77.8104 35.1114,56.6438 -0.5,35.5C -0.5,31.1667 -0.5,26.8333 -0.5,22.5C 41.529,48.4595 83.8623,73.9595 126.5,99C 139.5,99.6667 152.5,99.6667 165.5,99C 110.104,66.3104 55.1044,33.1437 0.5,-0.5 Z"/></g>
<g><path style="opacity:1" fill="#022169" d="M 58.5,-0.5 C 105.167,-0.5 151.833,-0.5 198.5,-0.5C 198.831,27.3384 198.498,55.005 197.5,82.5C 150.88,55.1916 104.547,27.5249 58.5,-0.5 Z"/></g>
<g><path style="opacity:1" fill="#2e3a71" d="M 198.5,-0.5 C 198.833,-0.5 199.167,-0.5 199.5,-0.5C 199.667,27.8353 199.5,56.1686 199,84.5C 198.283,83.9558 197.783,83.2891 197.5,82.5C 198.498,55.005 198.831,27.3384 198.5,-0.5 Z"/></g>
<g><path style="opacity:1" fill="#c8142f" d="M 219.5,-0.5 C 239.5,-0.5 259.5,-0.5 279.5,-0.5C 279.5,39.5 279.5,79.5 279.5,119.5C 352.833,119.5 426.167,119.5 499.5,119.5C 499.5,139.5 499.5,159.5 499.5,179.5C 426.167,179.5 352.833,179.5 279.5,179.5C 279.5,219.5 279.5,259.5 279.5,299.5C 259.5,299.5 239.5,299.5 219.5,299.5C 219.5,259.5 219.5,219.5 219.5,179.5C 146.167,179.5 72.8333,179.5 -0.5,179.5C -0.5,159.5 -0.5,139.5 -0.5,119.5C 72.8333,119.5 146.167,119.5 219.5,119.5C 219.5,79.5 219.5,39.5 219.5,-0.5 Z"/></g>
<g><path style="opacity:1" fill="#fdfcfc" d="M 280.5,-0.5 C 286.833,-0.5 293.167,-0.5 299.5,-0.5C 299.167,27.5079 299.5,55.5079 300.5,83.5C 301.107,83.3764 301.44,83.0431 301.5,82.5C 348.027,55.6254 394.027,27.9588 439.5,-0.5C 446.167,-0.5 452.833,-0.5 459.5,-0.5C 407.062,32.2283 354.062,64.2283 300.5,95.5C 299.571,96.6888 299.238,98.0222 299.5,99.5C 310.838,99.6665 322.172,99.4999 333.5,99C 388.531,65.8207 443.531,32.6541 498.5,-0.5C 498.833,-0.5 499.167,-0.5 499.5,-0.5C 499.5,11.1667 499.5,22.8333 499.5,34.5C 465.365,55.4049 431.032,76.0716 396.5,96.5C 394.86,97.3201 393.193,98.1534 391.5,99C 427.498,99.5 463.498,99.6667 499.5,99.5C 499.5,105.833 499.5,112.167 499.5,118.5C 426.5,118.5 353.5,118.5 280.5,118.5C 280.5,78.8333 280.5,39.1667 280.5,-0.5 Z"/></g>
<g><path style="opacity:1" fill="#2e3a71" d="M 299.5,-0.5 C 299.833,-0.5 300.167,-0.5 300.5,-0.5C 300.169,27.3384 300.502,55.005 301.5,82.5C 301.44,83.0431 301.107,83.3764 300.5,83.5C 299.5,55.5079 299.167,27.5079 299.5,-0.5 Z"/></g>
<g><path style="opacity:1" fill="#012169" d="M 300.5,-0.5 C 346.833,-0.5 393.167,-0.5 439.5,-0.5C 394.027,27.9588 348.027,55.6254 301.5,82.5C 300.502,55.005 300.169,27.3384 300.5,-0.5 Z"/></g>
<g><path style="opacity:1" fill="#c81630" d="M 459.5,-0.5 C 472.5,-0.5 485.5,-0.5 498.5,-0.5C 443.531,32.6541 388.531,65.8207 333.5,99C 322.172,99.4999 310.838,99.6665 299.5,99.5C 299.238,98.0222 299.571,96.6888 300.5,95.5C 354.062,64.2283 407.062,32.2283 459.5,-0.5 Z"/></g>
<g><path style="opacity:1" fill="#c81630" d="M -0.5,-0.5 C -0.166667,-0.5 0.166667,-0.5 0.5,-0.5C 55.1044,33.1437 110.104,66.3104 165.5,99C 152.5,99.6667 139.5,99.6667 126.5,99C 83.8623,73.9595 41.529,48.4595 -0.5,22.5C -0.5,14.8333 -0.5,7.16667 -0.5,-0.5 Z"/></g>
<g><path style="opacity:1" fill="#042269" d="M -0.5,35.5 C 35.1114,56.6438 70.778,77.8104 106.5,99C 70.8349,99.5 35.1682,99.6667 -0.5,99.5C -0.5,78.1667 -0.5,56.8333 -0.5,35.5 Z"/></g>
<g><path style="opacity:1" fill="#032169" d="M 499.5,34.5 C 499.5,55.8333 499.5,77.1667 499.5,98.5C 464.817,99.1599 430.484,98.4932 396.5,96.5C 431.032,76.0716 465.365,55.4049 499.5,34.5 Z"/></g>
<g><path style="opacity:1" fill="#2f3b72" d="M 396.5,96.5 C 430.484,98.4932 464.817,99.1599 499.5,98.5C 499.5,98.8333 499.5,99.1667 499.5,99.5C 463.498,99.6667 427.498,99.5 391.5,99C 393.193,98.1534 394.86,97.3201 396.5,96.5 Z"/></g>
<g><path style="opacity:1" fill="#f5dade" d="M 218.5,-0.5 C 218.833,-0.5 219.167,-0.5 219.5,-0.5C 219.5,39.5 219.5,79.5 219.5,119.5C 146.167,119.5 72.8333,119.5 -0.5,119.5C -0.5,119.167 -0.5,118.833 -0.5,118.5C 72.5,118.5 145.5,118.5 218.5,118.5C 218.5,78.8333 218.5,39.1667 218.5,-0.5 Z"/></g>
<g><path style="opacity:1" fill="#f5dade" d="M 279.5,-0.5 C 279.833,-0.5 280.167,-0.5 280.5,-0.5C 280.5,39.1667 280.5,78.8333 280.5,118.5C 353.5,118.5 426.5,118.5 499.5,118.5C 499.5,118.833 499.5,119.167 499.5,119.5C 426.167,119.5 352.833,119.5 279.5,119.5C 279.5,79.5 279.5,39.5 279.5,-0.5 Z"/></g>
<g><path style="opacity:1" fill="#f5dade" d="M -0.5,180.5 C -0.5,180.167 -0.5,179.833 -0.5,179.5C 72.8333,179.5 146.167,179.5 219.5,179.5C 219.5,219.5 219.5,259.5 219.5,299.5C 219.167,299.5 218.833,299.5 218.5,299.5C 218.5,259.833 218.5,220.167 218.5,180.5C 145.5,180.5 72.5,180.5 -0.5,180.5 Z"/></g>
<g><path style="opacity:1" fill="#f5dade" d="M 499.5,179.5 C 499.5,179.833 499.5,180.167 499.5,180.5C 426.5,180.5 353.5,180.5 280.5,180.5C 280.5,220.167 280.5,259.833 280.5,299.5C 280.167,299.5 279.833,299.5 279.5,299.5C 279.5,259.5 279.5,219.5 279.5,179.5C 352.833,179.5 426.167,179.5 499.5,179.5 Z"/></g>
<g><path style="opacity:1" fill="#fdfcfc" d="M -0.5,180.5 C 72.5,180.5 145.5,180.5 218.5,180.5C 218.5,220.167 218.5,259.833 218.5,299.5C 212.167,299.5 205.833,299.5 199.5,299.5C 199.667,271.165 199.5,242.831 199,214.5C 198.283,215.044 197.783,215.711 197.5,216.5C 150.9,243.777 104.567,271.443 58.5,299.5C 51.8333,299.5 45.1667,299.5 38.5,299.5C 91.7065,266.73 145.373,234.73 199.5,203.5C 199.5,202.167 199.5,200.833 199.5,199.5C 188.162,199.333 176.828,199.5 165.5,200C 110.329,233.03 55.3291,266.197 0.5,299.5C 0.166667,299.5 -0.166667,299.5 -0.5,299.5C -0.5,287.5 -0.5,275.5 -0.5,263.5C 35.1114,242.356 70.778,221.19 106.5,200C 70.8349,199.5 35.1682,199.333 -0.5,199.5C -0.5,193.167 -0.5,186.833 -0.5,180.5 Z"/></g>
<g><path style="opacity:1" fill="#fdfcfd" d="M 499.5,180.5 C 499.5,186.833 499.5,193.167 499.5,199.5C 463.498,199.333 427.498,199.5 391.5,200C 392.901,200.41 394.234,200.91 395.5,201.5C 430.163,222.499 464.83,243.499 499.5,264.5C 499.5,268.5 499.5,272.5 499.5,276.5C 457.194,251.011 414.861,225.511 372.5,200C 359.5,199.333 346.5,199.333 333.5,200C 388.651,232.998 443.651,266.165 498.5,299.5C 478.833,299.5 459.167,299.5 439.5,299.5C 394.027,271.041 348.027,243.375 301.5,216.5C 301.44,215.957 301.107,215.624 300.5,215.5C 299.5,243.492 299.167,271.492 299.5,299.5C 293.167,299.5 286.833,299.5 280.5,299.5C 280.5,259.833 280.5,220.167 280.5,180.5C 353.5,180.5 426.5,180.5 499.5,180.5 Z"/></g>
<g><path style="opacity:1" fill="#2f3a71" d="M 499.5,199.5 C 499.5,199.833 499.5,200.167 499.5,200.5C 464.663,200.168 429.996,200.502 395.5,201.5C 394.234,200.91 392.901,200.41 391.5,200C 427.498,199.5 463.498,199.333 499.5,199.5 Z"/></g>
<g><path style="opacity:1" fill="#042269" d="M -0.5,199.5 C 35.1682,199.333 70.8349,199.5 106.5,200C 70.778,221.19 35.1114,242.356 -0.5,263.5C -0.5,242.167 -0.5,220.833 -0.5,199.5 Z"/></g>
<g><path style="opacity:1" fill="#c81630" d="M 38.5,299.5 C 25.8333,299.5 13.1667,299.5 0.5,299.5C 55.3291,266.197 110.329,233.03 165.5,200C 176.828,199.5 188.162,199.333 199.5,199.5C 199.5,200.833 199.5,202.167 199.5,203.5C 145.373,234.73 91.7065,266.73 38.5,299.5 Z"/></g>
<g><path style="opacity:1" fill="#c81730" d="M 499.5,276.5 C 499.5,284.167 499.5,291.833 499.5,299.5C 499.167,299.5 498.833,299.5 498.5,299.5C 443.651,266.165 388.651,232.998 333.5,200C 346.5,199.333 359.5,199.333 372.5,200C 414.861,225.511 457.194,251.011 499.5,276.5 Z"/></g>
<g><path style="opacity:1" fill="#032169" d="M 499.5,200.5 C 499.5,221.833 499.5,243.167 499.5,264.5C 464.83,243.499 430.163,222.499 395.5,201.5C 429.996,200.502 464.663,200.168 499.5,200.5 Z"/></g>
<g><path style="opacity:1" fill="#022169" d="M 197.5,216.5 C 198.498,243.995 198.831,271.662 198.5,299.5C 151.833,299.5 105.167,299.5 58.5,299.5C 104.567,271.443 150.9,243.777 197.5,216.5 Z"/></g>
<g><path style="opacity:1" fill="#2e3a71" d="M 199.5,299.5 C 199.167,299.5 198.833,299.5 198.5,299.5C 198.831,271.662 198.498,243.995 197.5,216.5C 197.783,215.711 198.283,215.044 199,214.5C 199.5,242.831 199.667,271.165 199.5,299.5 Z"/></g>
<g><path style="opacity:1" fill="#2e3a71" d="M 301.5,216.5 C 300.502,243.995 300.169,271.662 300.5,299.5C 300.167,299.5 299.833,299.5 299.5,299.5C 299.167,271.492 299.5,243.492 300.5,215.5C 301.107,215.624 301.44,215.957 301.5,216.5 Z"/></g>
<g><path style="opacity:1" fill="#012169" d="M 301.5,216.5 C 348.027,243.375 394.027,271.041 439.5,299.5C 393.167,299.5 346.833,299.5 300.5,299.5C 300.169,271.662 300.502,243.995 301.5,216.5 Z"/></g>
</svg>
